# xmcd
#
# Track frame offsets:
#	150
#	11714
#	23619
#	38404
#	52199
#	65394
#	81456
#	94673
#	105931
#	118337
#
# Disc length: 1705 seconds
#
# Revision: 0
# Processed by: cddbd v1.4PL0 Copyright (c) Steve Scherf et al.
# Submitted via: audiograbber 1.81.02
#
DISCID=7806a70a
DTITLE=Various Artist - Greatest Country Hits of the 80's - 1980
DYEAR=1980
DGENRE=Country
TTITLE0=Willie Nelson - On The Road Again
TTITLE1=Lacy J. Dalton - Hillbilly Girl With The Blues
TTITLE2=George Jones - He Stopped Loving Her Today
TTITLE3=Willie Nelson - My Heros Have Always Been Cowboys
TTITLE4=Moe Bandy - Following The Feeling
TTITLE5=Crystal Gayle - It's Like We Never Said Goodbye
TTITLE6=Mickey Gill - True Love Ways
TTITLE7=Janie Frick - Down To My Last Broken Heart
TTITLE8=Gatlin Bros - Take Me To Your Lovin' Place
TTITLE9=Charly McClain - Who's Cheatin' Who
EXTD=
EXTT0=
EXTT1=
EXTT2=
EXTT3=
EXTT4=
EXTT5=
EXTT6=
EXTT7=
EXTT8=
EXTT9=
PLAYORDER=
